<?xml version="1.0" standalone="no"?>
<!DOCTYPE svg PUBLIC "-//W3C//DTD SVG 20010904//EN"
 "http://www.w3.org/TR/2001/REC-SVG-20010904/DTD/svg10.dtd">
<svg version="1.0" xmlns="http://www.w3.org/2000/svg"
 width="200.000000pt" height="200.000000pt" viewBox="0 0 200.000000 200.000000"
 preserveAspectRatio="xMidYMid meet">

<g transform="translate(0.000000,200.000000) scale(0.100000,-0.100000)"
fill="#000000" stroke="none">
<path d="M681 1510 c-116 -10 -210 -27 -280 -52 -30 -10 -67 -18 -83 -18 -36
0 -68 -16 -68 -35 0 -7 -25 -39 -55 -69 -31 -31 -67 -79 -80 -108 -83 -184
-39 -468 97 -622 82 -94 179 -132 313 -123 110 8 197 42 299 116 95 69 121 81
176 81 55 0 81 -12 176 -81 216 -157 459 -158 606 -2 111 117 171 358 134 532
-44 207 -204 326 -501 371 -90 14 -611 21 -734 10z m809 -69 c262 -57 390
-197 390 -425 -1 -212 -85 -387 -221 -455 -55 -28 -72 -31 -150 -31 -103 0
-191 25 -260 73 -176 123 -207 136 -290 122 -37 -6 -63 -22 -212 -124 -70 -48
-152 -71 -256 -71 -78 0 -95 3 -150 31 -135 68 -220 242 -221 450 0 128 26
202 96 279 89 95 209 145 410 170 38 5 227 7 419 5 311 -2 360 -5 445 -24z"/>
<path d="M637 1439 c-175 -18 -281 -62 -373 -153 -83 -83 -109 -148 -108 -271
1 -152 46 -283 126 -364 70 -70 108 -86 213 -86 112 1 169 20 297 104 113 73
155 91 208 91 53 0 95 -18 208 -91 128 -84 185 -103 297 -104 107 0 146 16
216 92 80 86 121 205 123 358 1 123 -25 188 -108 271 -95 94 -194 134 -386
154 -112 11 -600 11 -713 -1z"/>
</g>
</svg>
